<svg width="610" height="383" viewBox="0 0 610 383" fill="none" xmlns="http://www.w3.org/2000/svg">
<path d="M96.0938 236.312L91.0231 241.138L91.0315 241.147L91.0398 241.156L96.0938 236.312ZM90.0781 181L83.7877 177.929L83.7827 177.939L83.7776 177.95L90.0781 181ZM103.516 165.531L107.312 171.413L107.318 171.408L107.325 171.404L103.516 165.531ZM147.891 170.766L142.535 175.273L147.891 170.766ZM157.031 207.875V214.875H164.031V207.875H157.031ZM99.7656 207.875V200.875H92.5884L92.7678 208.05L99.7656 207.875ZM107.031 228.109L101.826 232.789L101.85 232.817L101.876 232.844L107.031 228.109ZM147.109 224.359L151.41 218.837L145.867 214.519L141.57 220.079L147.109 224.359ZM155.938 231.234L161.805 235.052L165.312 229.663L160.238 225.712L155.938 231.234ZM107.578 178.188L112.683 182.977L112.698 182.962L112.712 182.946L107.578 178.188ZM100.234 196L93.2863 195.149L92.3249 203H100.234V196ZM142.578 196V203H149.578V196H142.578ZM142.578 194.906H149.578V194.708L149.567 194.51L142.578 194.906ZM136.641 177.875L131.364 182.475L131.379 182.492L131.394 182.509L136.641 177.875ZM124.062 240.562C114.295 240.562 106.872 237.442 101.148 231.469L91.0398 241.156C99.6908 250.183 110.913 254.562 124.062 254.562V240.562ZM101.164 231.487C95.465 225.498 92.3125 217.284 92.3125 206.078H78.3125C78.3125 220.081 82.3475 232.023 91.0231 241.138L101.164 231.487ZM92.3125 206.078V203.422H78.3125V206.078H92.3125ZM92.3125 203.422C92.3125 195.934 93.7264 189.529 96.3786 184.05L83.7776 177.95C80.0757 185.596 78.3125 194.139 78.3125 203.422H92.3125ZM96.3686 184.071C99.0841 178.508 102.74 174.364 107.312 171.413L99.7195 159.65C92.8333 164.095 87.5305 170.262 83.7877 177.929L96.3686 184.071ZM107.325 171.404C112.003 168.37 116.935 166.906 122.266 166.906V152.906C114.159 152.906 106.591 155.193 99.7063 159.659L107.325 171.404ZM122.266 166.906C131.561 166.906 137.993 169.877 142.535 175.273L153.246 166.258C145.601 157.175 134.95 152.906 122.266 152.906V166.906ZM142.535 175.273C147.194 180.808 150.031 189.329 150.031 201.859H164.031C164.031 187.411 160.775 175.202 153.246 166.258L142.535 175.273ZM150.031 201.859V207.875H164.031V201.859H150.031ZM157.031 200.875H99.7656V214.875H157.031V200.875ZM92.7678 208.05C93.009 217.698 95.8602 226.154 101.826 232.789L112.237 223.43C108.931 219.753 106.939 214.719 106.763 207.7L92.7678 208.05ZM101.876 232.844C107.943 239.452 115.779 242.766 124.844 242.766V228.766C119.534 228.766 115.494 226.976 112.187 223.375L101.876 232.844ZM124.844 242.766C130.896 242.766 136.512 241.527 141.362 238.674L134.263 226.607C132.029 227.921 129 228.766 124.844 228.766V242.766ZM141.362 238.674C145.716 236.113 149.478 232.742 152.648 228.64L141.57 220.079C139.428 222.852 136.993 225.002 134.263 226.607L141.362 238.674ZM142.808 229.882L151.637 236.757L160.238 225.712L151.41 218.837L142.808 229.882ZM150.07 227.416C144.412 236.112 136.117 240.562 124.062 240.562V254.562C140.342 254.562 153.296 248.128 161.805 235.052L150.07 227.416ZM122.266 164.781C114.487 164.781 107.73 167.726 102.444 173.429L112.712 182.946C115.343 180.107 118.377 178.781 122.266 178.781V164.781ZM102.473 173.398C97.207 179.011 94.3448 186.505 93.2863 195.149L107.182 196.851C107.999 190.183 110.033 185.802 112.683 182.977L102.473 173.398ZM100.234 203H142.578V189H100.234V203ZM149.578 196V194.906H135.578V196H149.578ZM149.567 194.51C149.094 186.179 146.797 178.801 141.888 173.241L131.394 182.509C133.567 184.97 135.229 188.946 135.589 195.303L149.567 194.51ZM141.917 173.275C136.876 167.493 130.057 164.781 122.266 164.781V178.781C126.558 178.781 129.322 180.132 131.364 182.475L141.917 173.275ZM235.906 203.578V210.578H242.906V203.578H235.906ZM197.781 203.578H190.781V210.578H197.781V203.578ZM197.781 191.781V184.781H190.781V191.781H197.781ZM235.906 191.781H242.906V184.781H235.906V191.781ZM235.906 196.578H197.781V210.578H235.906V196.578ZM204.781 203.578V191.781H190.781V203.578H204.781ZM197.781 198.781H235.906V184.781H197.781V198.781ZM228.906 191.781V203.578H242.906V191.781H228.906ZM284.312 246H277.312V253H284.312V246ZM284.312 132.25V125.25H277.312V132.25H284.312ZM349.312 139.906L344.863 145.31L344.874 145.319L344.885 145.328L349.312 139.906ZM354.156 176.703L359.773 180.88L359.786 180.863L359.799 180.846L354.156 176.703ZM341.812 186.156L339.047 179.726L320.833 187.558L339.927 192.898L341.812 186.156ZM356.344 196L350.693 200.132L350.718 200.166L350.744 200.2L356.344 196ZM351.812 237.25L347.183 232L351.812 237.25ZM299.312 192.797V185.797H292.312V192.797H299.312ZM299.312 233.734H292.312V240.734H299.312V233.734ZM340.562 228.344L345.234 233.557L345.238 233.553L340.562 228.344ZM299.312 180.766H292.312V187.766H299.312V180.766ZM337.672 175.844L333.205 170.455L333.187 170.469L333.17 170.484L337.672 175.844ZM338.141 148.891L333.816 154.395L333.84 154.414L333.865 154.433L338.141 148.891ZM299.312 144.594V137.594H292.312V144.594H299.312ZM291.312 246V132.25H277.312V246H291.312ZM284.312 139.25H321.5V125.25H284.312V139.25ZM321.5 139.25C333.051 139.25 340.437 141.665 344.863 145.31L353.762 134.503C345.793 127.939 334.637 125.25 321.5 125.25V139.25ZM344.885 145.328C349.123 148.79 351.688 154.113 351.688 162.562H365.688C365.688 151.012 362.002 141.231 353.74 134.485L344.885 145.328ZM351.688 162.562C351.688 166.45 350.615 169.698 348.514 172.56L359.799 180.846C363.739 175.479 365.688 169.3 365.688 162.562H351.688ZM348.539 172.526C346.339 175.485 343.262 177.913 339.047 179.726L344.578 192.587C350.78 189.92 355.932 186.046 359.773 180.88L348.539 172.526ZM339.927 192.898C344.664 194.222 348.14 196.639 350.693 200.132L361.994 191.868C357.465 185.673 351.253 181.528 343.698 179.415L339.927 192.898ZM350.744 200.2C353.326 203.643 354.734 207.855 354.734 213.188H368.734C368.734 205.186 366.549 197.94 361.944 191.8L350.744 200.2ZM354.734 213.188C354.734 221.736 352.047 227.71 347.183 232L356.442 242.5C364.808 235.123 368.734 225.055 368.734 213.188H354.734ZM347.183 232C342.253 236.347 334.778 239 323.766 239V253C336.92 253 348.143 249.82 356.442 242.5L347.183 232ZM323.766 239H284.312V253H323.766V239ZM292.312 192.797V233.734H306.312V192.797H292.312ZM299.312 240.734H324.078V226.734H299.312V240.734ZM324.078 240.734C332.257 240.734 339.597 238.609 345.234 233.557L335.891 223.131C333.508 225.266 329.857 226.734 324.078 226.734V240.734ZM345.238 233.553C351.027 228.358 353.656 221.327 353.656 213.344H339.656C339.656 218.069 338.223 221.038 335.887 223.134L345.238 233.553ZM353.656 213.344C353.656 205.258 351.431 197.951 345.809 192.781C340.297 187.713 332.701 185.797 324.312 185.797V199.797C330.82 199.797 334.395 201.305 336.332 203.086C338.158 204.765 339.656 207.732 339.656 213.344H353.656ZM324.312 185.797H299.312V199.797H324.312V185.797ZM299.312 187.766H321.969V173.766H299.312V187.766ZM321.969 187.766C329.697 187.766 336.682 185.817 342.174 181.204L333.17 170.484C330.849 172.433 327.365 173.766 321.969 173.766V187.766ZM342.139 181.233C347.866 176.486 350.609 169.971 350.609 162.484H336.609C336.609 166.248 335.395 168.639 333.205 170.455L342.139 181.233ZM350.609 162.484C350.609 154.896 348.346 147.922 342.416 143.348L333.865 154.433C335.227 155.484 336.609 157.573 336.609 162.484H350.609ZM342.465 143.386C337.036 139.12 329.632 137.594 321.5 137.594V151.594C328.264 151.594 331.954 152.932 333.816 154.395L342.465 143.386ZM321.5 137.594H299.312V151.594H321.5V137.594ZM292.312 144.594V180.766H306.312V144.594H292.312ZM413.438 246V253H420.438V246H413.438ZM398.984 246H391.984V253H398.984V246ZM398.984 161.469V154.469H391.984V161.469H398.984ZM413.438 161.469H420.438V154.469H413.438V161.469ZM399.922 133.109L394.727 128.417L394.685 128.464L394.643 128.512L399.922 133.109ZM399.922 144.906L394.719 149.589L394.761 149.636L394.804 149.682L399.922 144.906ZM413.438 239H398.984V253H413.438V239ZM405.984 246V161.469H391.984V246H405.984ZM398.984 168.469H413.438V154.469H398.984V168.469ZM406.438 161.469V246H420.438V161.469H406.438ZM404.812 139.047C404.812 138.221 405.012 137.923 405.2 137.707L394.643 128.512C392.019 131.525 390.812 135.185 390.812 139.047H404.812ZM405.117 137.801C405.063 137.861 405.013 137.871 405.093 137.841C405.209 137.796 405.578 137.688 406.328 137.688V123.688C402.151 123.688 397.876 124.932 394.727 128.417L405.117 137.801ZM406.328 137.688C407.078 137.688 407.447 137.796 407.564 137.841C407.643 137.871 407.594 137.861 407.54 137.801L417.929 128.417C414.781 124.932 410.505 123.688 406.328 123.688V137.688ZM407.54 137.801C407.742 138.025 407.922 138.291 407.922 139.047H421.922C421.922 135.115 420.644 131.423 417.929 128.417L407.54 137.801ZM407.922 139.047C407.922 139.804 407.744 139.994 407.617 140.13L417.852 149.682C420.641 146.694 421.922 142.977 421.922 139.047H407.922ZM407.617 140.13C407.686 140.056 407.737 140.053 407.634 140.09C407.495 140.141 407.101 140.25 406.328 140.25V154.25C410.438 154.25 414.687 153.074 417.852 149.682L407.617 140.13ZM406.328 140.25C405.555 140.25 405.161 140.141 405.022 140.09C404.92 140.053 404.97 140.056 405.039 140.13L394.804 149.682C397.97 153.074 402.219 154.25 406.328 154.25V140.25ZM405.125 140.223C405.011 140.097 404.812 139.875 404.812 139.047H390.812C390.812 142.906 392.02 146.59 394.719 149.589L405.125 140.223ZM453.656 180.609L447.385 177.499L447.376 177.519L447.366 177.538L453.656 180.609ZM467.25 165.297L463.578 159.337L463.566 159.344L463.554 159.352L467.25 165.297ZM515.062 171.859L509.831 176.51L509.839 176.519L509.848 176.529L515.062 171.859ZM521 226.859L514.7 223.809L514.694 223.82L514.689 223.83L521 226.859ZM507.484 242.094L503.798 236.143L503.786 236.15L503.774 236.158L507.484 242.094ZM459.438 235.609L454.206 240.26L454.214 240.269L454.223 240.279L459.438 235.609ZM469.828 227.25L464.259 231.491L464.271 231.507L464.284 231.523L469.828 227.25ZM504.828 227.172L510.416 231.388L510.425 231.376L510.434 231.364L504.828 227.172ZM504.672 180.453L499.09 184.677L499.111 184.705L499.133 184.733L504.672 180.453ZM455.812 202.953C455.812 195.602 457.24 189.225 459.947 183.68L447.366 177.538C443.614 185.223 441.812 193.742 441.812 202.953H455.812ZM459.927 183.72C462.681 178.169 466.363 174.091 470.946 171.242L463.554 159.352C456.575 163.691 451.194 169.821 447.385 177.499L459.927 183.72ZM470.922 171.257C475.556 168.402 480.904 166.906 487.172 166.906V152.906C478.544 152.906 470.611 155.004 463.578 159.337L470.922 171.257ZM487.172 166.906C496.862 166.906 504.19 170.164 509.831 176.51L520.294 167.209C511.768 157.617 500.503 152.906 487.172 152.906V166.906ZM509.848 176.529C515.578 182.929 518.766 191.725 518.766 203.656H532.766C532.766 189.129 528.818 176.727 520.277 167.19L509.848 176.529ZM518.766 203.656V204.672H532.766V203.656H518.766ZM518.766 204.672C518.766 211.981 517.36 218.313 514.7 223.809L527.3 229.91C530.994 222.28 532.766 213.821 532.766 204.672H518.766ZM514.689 223.83C512.116 229.191 508.497 233.232 503.798 236.143L511.171 248.044C518.242 243.664 523.634 237.549 527.311 229.888L514.689 223.83ZM503.774 236.158C499.169 239.036 493.763 240.562 487.328 240.562V254.562C496.101 254.562 504.133 252.443 511.194 248.03L503.774 236.158ZM487.328 240.562C477.701 240.562 470.357 237.311 464.652 230.94L454.223 240.279C462.789 249.846 474.039 254.562 487.328 254.562V240.562ZM464.669 230.959C458.972 224.55 455.812 215.792 455.812 203.969H441.812C441.812 218.395 445.736 230.731 454.206 240.26L464.669 230.959ZM455.812 203.969V202.953H441.812V203.969H455.812ZM456.344 204.672C456.344 215.098 458.754 224.261 464.259 231.491L475.397 223.009C472.257 218.885 470.344 212.996 470.344 204.672H456.344ZM464.284 231.523C470.011 238.954 477.91 242.766 487.328 242.766V228.766C482.163 228.766 478.396 226.9 475.373 222.977L464.284 231.523ZM487.328 242.766C496.808 242.766 504.735 238.918 510.416 231.388L499.24 222.956C496.276 226.884 492.536 228.766 487.328 228.766V242.766ZM510.434 231.364C515.981 223.946 518.312 214.193 518.312 202.953H504.312C504.312 212.443 502.322 218.835 499.222 222.98L510.434 231.364ZM518.312 202.953C518.312 192.572 515.822 183.435 510.211 176.173L499.133 184.733C502.375 188.929 504.312 194.792 504.312 202.953H518.312ZM510.254 176.229C504.547 168.688 496.641 164.781 487.172 164.781V178.781C492.286 178.781 496.047 180.656 499.09 184.677L510.254 176.229ZM487.172 164.781C477.854 164.781 470.055 168.636 464.362 176.024L475.451 184.57C478.508 180.603 482.219 178.781 487.172 178.781V164.781ZM464.362 176.024C458.688 183.386 456.344 193.258 456.344 204.672H470.344C470.344 194.94 472.375 188.562 475.451 184.57L464.362 176.024Z" fill="#00FFF0"/>
</svg>
